<?xml version="1.0" standalone="no"?><!DOCTYPE svg PUBLIC "-//W3C//DTD SVG 1.1//EN" "http://www.w3.org/Graphics/SVG/1.1/DTD/svg11.dtd"><svg t="1749391563488" class="icon" viewBox="0 0 1024 1024" version="1.1" xmlns="http://www.w3.org/2000/svg" p-id="11963" xmlns:xlink="http://www.w3.org/1999/xlink" width="200" height="200"><path d="M803.399898 302.360556c-34.301505-32.975056-51.708239-37.792161-56.920951-36.046833-5.235983 1.745328-4.817104 17.825613-4.817104 17.825612-6.446077 201.899498-118.449567 231.919133-118.449568 231.919133C698.750055 183.678278 475.929896 32.556178 453.822413 19.547669 431.621846 6.562432 418.613337 0 402.533052 0c-16.057014 0-19.128791 39.095339-19.12879 39.095339-7.795797 205.925387-64.809832 237.364555-182.468185 333.008508-115.284707 93.665915-115.284707 241.623155-115.284706 241.623155 0 315.369064 268.454658 395.444695 285.977747 394.21133 17.592902-1.326449 7.772526-23.457203 7.772526-23.457203-67.067122-208.46193 3.886263-302.988874 3.886262-302.988874 27.343466 187.704167 168.133227 311.506072 168.133227 311.506072 42.399825 45.541415 74.932732 27.320195 74.932732 27.320195 21.525707-8.493928 242.996146-68.393571 299.102611-298.357937 56.106465-230.080721-87.638717-386.624973-122.056578-419.600029zM632.31125 957.160934s-29.600756 11.961312-47.193659-6.259909c-17.616173-18.22122-90.943204-92.036943-130.66686-221.167915-27.017671-87.731801-46.891135-206.507163-46.262817-213.674642 0 0-42.399825 78.213948-76.282453 136.182096-33.905898 57.944877-47.21693 170.157807-31.95113 252.188205 0 0-142.023126-84.706567-151.145372-241.762781-9.098975-157.079485 70.348338-231.314086 138.74191-293.145226 68.416842-61.947495 130.341066-110.770126 146.630791-272.969238 0 0-1.326449-12.380191 9.122245-14.334958 10.425424-1.931496 132.993964 140.882845 137.508545 265.80176 4.305141 118.984801-14.428042 192.916879-47.612537 292.540179 0 0 125.128354-58.666279 178.55865-117.239474 53.453567-58.666279 73.629554-153.798269 73.629554-153.798269s92.548906 107.512181 92.548906 263.870264c0 156.241728-125.733401 292.423824-245.625773 323.769908z" fill="#FE2838" p-id="11964"></path></svg>