<?xml version="1.0" standalone="no"?><!DOCTYPE svg PUBLIC "-//W3C//DTD SVG 1.1//EN" "http://www.w3.org/Graphics/SVG/1.1/DTD/svg11.dtd"><svg t="1749399703815" class="icon" viewBox="0 0 1137 1024" version="1.1" xmlns="http://www.w3.org/2000/svg" p-id="4259" xmlns:xlink="http://www.w3.org/1999/xlink" width="222.0703125" height="200"><path d="M1137.778 512a142.222 142.222 0 1 1-284.445 0 142.222 142.222 0 0 1 284.445 0zM910.052 813.369a36.693 36.693 0 0 1-8.363 27.05 509.212 509.212 0 0 1-555.776 156.303C146.204 928.427 8.903 744.107 0.427 532.65-8.078 321.166 113.92 126.293 307.456 42.24a508.956 508.956 0 0 1 566.613 110.677 36.523 36.523 0 0 1 0 52.196C794.51 279.41 629.447 443.25 563.854 509.042c68.182 58.083 234.752 200.362 332.8 279.324 7.652 6.315 12.43 15.246 13.37 25.003zM426.667 284.444a56.889 56.889 0 1 0-113.807 0.029 56.889 56.889 0 0 0 113.807-0.029z" p-id="4260"></path></svg>